<svg width="58" height="28" viewBox="0 0 58 28" fill="none" xmlns="http://www.w3.org/2000/svg">
<path d="M23.5556 4.58768C21.5901 2.58482 19.1567 1.38061 16.2305 1H11.9564C9.06757 1.38061 6.62796 2.57858 4.64382 4.58768C2.21668 7.01482 1.00623 10.0409 1.00623 13.6723C1.00623 17.3037 2.21668 20.3485 4.64382 22.7944C6.40334 24.5601 8.5185 25.6832 11.0018 26.1761C11.2451 26.1949 11.4947 26.2073 11.7381 26.2073H17.0291C19.5873 25.7269 21.7648 24.5913 23.5556 22.7944C26.0014 20.2861 27.2368 17.2475 27.2368 13.6723C27.2368 10.0971 26.0077 7.04602 23.5556 4.58768ZM18.4579 18.1897C17.2475 19.3939 15.7874 20.0053 14.0716 20.0053C12.3558 20.0053 10.8957 19.3939 9.68528 18.1897C8.50602 16.9792 7.91328 15.4568 7.91328 13.6224C7.91328 11.788 8.50602 10.3716 9.68528 9.19238C10.8957 7.95074 12.362 7.33303 14.0716 7.33303C15.7812 7.33303 17.2475 7.95074 18.4579 9.19238C19.6684 10.4028 20.2736 11.8816 20.2736 13.6224C20.2736 15.3632 19.6684 16.9168 18.4579 18.1897Z" fill="#232323"/>
<path d="M56.2565 12.8487C56.2441 12.4244 56.2129 12.0064 56.1567 11.607C56.1005 11.2077 56.0381 10.8084 55.9508 10.4153C55.9071 10.2281 55.8634 10.0472 55.8135 9.86C55.8135 9.84129 55.8135 9.82257 55.801 9.81009C55.2208 7.84467 54.1788 6.10386 52.6564 4.58768C50.6909 2.58482 48.2513 1.38061 45.325 1H41.0573C38.1684 1.38061 35.7225 2.57858 33.7446 4.58768C31.3175 7.01482 30.1133 10.0409 30.1133 13.6723C30.1133 17.3037 31.3175 20.3485 33.7446 22.7944C35.5354 24.5913 37.7067 25.7269 40.2461 26.2073H45.3874C45.7306 26.2073 46.0675 26.1886 46.4045 26.1512C48.8441 25.6458 50.928 24.5289 52.6626 22.7944C54.0415 21.3842 55.0336 19.8057 55.6326 18.0524C55.6451 18.0212 55.6513 17.9962 55.6575 17.965C56.0506 16.6984 56.269 15.332 56.269 13.9094V13.2979C56.269 13.1482 56.269 12.9922 56.2565 12.8487ZM47.5712 18.1897C46.3608 19.3939 44.8945 20.0053 43.1849 20.0053C41.4753 20.0053 40.009 19.3939 38.7986 18.1897C37.6193 16.9792 37.0266 15.4568 37.0266 13.6224C37.0266 11.788 37.6193 10.3716 38.7986 9.19238C40.009 7.95074 41.4691 7.33303 43.1849 7.33303C44.9007 7.33303 46.3608 7.95074 47.5712 9.19238C48.7754 10.4028 49.3869 11.8816 49.3869 13.6224C49.3869 15.3632 48.7754 16.9168 47.5712 18.1897Z" fill="#CD3737"/>
<path d="M56.2689 13.2979V13.9094C56.2689 15.332 56.0506 16.6984 55.6575 17.965C55.6575 17.9962 55.645 18.0212 55.6325 18.0524C55.0273 19.8057 54.0415 21.3842 52.6626 22.7944C50.928 24.5289 48.844 25.652 46.4044 26.1512C46.0737 26.1886 45.7368 26.2073 45.3874 26.2073H11.7318C11.4885 26.2073 11.2389 26.1949 10.9956 26.1761C8.51853 25.6832 6.39712 24.5601 4.63759 22.7944C2.21045 20.3485 1 17.3037 1 13.6723C1 10.0409 2.21045 7.01482 4.63759 4.58768C6.62174 2.58482 9.05512 1.38061 11.9502 1H45.3312C48.2575 1.38061 50.7034 2.57858 52.6626 4.58768C54.185 6.1101 55.227 7.8509 55.8072 9.81009C55.8072 9.82257 55.8072 9.84129 55.8197 9.86C55.8696 10.0472 55.9133 10.2281 55.957 10.4153C56.0443 10.8084 56.1067 11.2077 56.1629 11.607C56.219 12.0064 56.2502 12.4244 56.2627 12.8487C56.2752 12.9922 56.2752 13.1482 56.2752 13.2979H56.2689Z" stroke="#232323" stroke-width="2" stroke-miterlimit="10"/>
</svg>
