<svg width="54" height="27" viewBox="0 0 54 27" fill="none" xmlns="http://www.w3.org/2000/svg">
<path d="M22.1746 4.49216C20.3331 2.53678 18.0436 1.37273 15.2952 1H11.2804C8.56511 1.37273 6.27567 2.53678 4.41757 4.49216C2.13919 6.85467 1 9.80208 1 13.3344C1 16.8667 2.13919 19.837 4.41204 22.2167C6.06553 23.937 8.05081 25.0323 10.379 25.5139C10.6112 25.5311 10.8435 25.5426 11.0702 25.5426H16.0362C18.4418 25.0781 20.4824 23.9657 22.1635 22.2167C24.464 19.7739 25.6198 16.8151 25.6198 13.3344C25.6198 9.85369 24.464 6.88334 22.1635 4.49216H22.1746ZM17.3911 17.7383C16.2519 18.9138 14.886 19.5044 13.2712 19.5044C11.6564 19.5044 10.2905 18.9138 9.15129 17.7383C8.03975 16.557 7.48675 15.0776 7.48675 13.2942C7.48675 11.5109 8.03975 10.1289 9.15129 8.98208C10.2905 7.77215 11.6619 7.17006 13.2712 7.17006C14.8804 7.17006 16.2519 7.76642 17.3911 8.98208C18.5303 10.1633 19.0943 11.6026 19.0943 13.2942C19.0943 14.9858 18.5303 16.4997 17.3911 17.7383Z" fill="#232323"/>
<path d="M52.8774 12.5373C52.8664 12.1244 52.8387 11.7173 52.7834 11.3274C52.7337 10.9375 52.6728 10.5475 52.5954 10.1633C52.5567 9.98557 52.5125 9.80208 52.4682 9.62432C52.4627 9.60711 52.4627 9.58991 52.4572 9.57844C51.9152 7.66894 50.9309 5.9716 49.5041 4.49216C47.6626 2.53678 45.3676 1.37273 42.6192 1H38.6099C35.8947 1.37273 33.5997 2.53678 31.7416 4.49216C29.4632 6.85467 28.3351 9.80208 28.3351 13.3344C28.3351 16.8667 29.4687 19.837 31.7416 22.2167C33.4227 23.9657 35.4633 25.0724 37.8468 25.5426H42.6745C43.0008 25.5426 43.316 25.5254 43.6257 25.491C45.9151 24.9978 47.8727 23.9083 49.4986 22.2225C50.7926 20.852 51.7217 19.3095 52.2913 17.6064C52.3023 17.5777 52.3078 17.5548 52.3134 17.5204C52.6839 16.2875 52.883 14.9572 52.883 13.5752V12.9846C52.883 12.8412 52.883 12.6864 52.8719 12.5488L52.8774 12.5373ZM44.7206 17.7383C43.5814 18.9138 42.21 19.5044 40.6007 19.5044C38.9915 19.5044 37.62 18.9138 36.4808 17.7383C35.3693 16.557 34.8163 15.0776 34.8163 13.2942C34.8163 11.5109 35.3693 10.1289 36.4808 8.98208C37.62 7.77215 38.986 7.17006 40.6007 7.17006C42.2155 7.17006 43.5814 7.76642 44.7206 8.98208C45.8543 10.1633 46.4239 11.6026 46.4239 13.2942C46.4239 14.9858 45.8543 16.4997 44.7206 17.7383Z" fill="#CD3737"/>
<path d="M52.894 12.9731V13.5637C52.894 14.9457 52.6894 16.276 52.3244 17.5089C52.3189 17.5376 52.3133 17.5605 52.3023 17.5949C51.7382 19.3037 50.8036 20.8405 49.5096 22.211C47.8782 23.9026 45.9206 24.9921 43.6367 25.4795C43.327 25.5139 43.0063 25.5311 42.6855 25.5311H11.0758C10.8435 25.5311 10.6112 25.5197 10.3845 25.5025C8.05634 25.0208 6.07106 23.9255 4.41757 22.2053C2.13919 19.837 1 16.8724 1 13.3344C1 9.79634 2.13919 6.85467 4.41204 4.49216C6.27567 2.53678 8.56511 1.37273 11.2804 1H42.6247C45.3731 1.37273 47.6681 2.53678 49.5096 4.49216C50.9364 5.9716 51.9207 7.66894 52.4626 9.57844C52.4682 9.58991 52.4682 9.60711 52.4737 9.62432C52.518 9.80208 52.5622 9.98557 52.6009 10.1633C52.6838 10.5475 52.7392 10.9375 52.7889 11.3274C52.8387 11.7173 52.8719 12.1244 52.8829 12.5373C52.894 12.6749 52.894 12.8298 52.894 12.9731V12.9731Z" stroke="#232323" stroke-miterlimit="10"/>
</svg>
